<svg xmlns="http://www.w3.org/2000/svg" x="0px" y="0px" width="50" height="50" viewBox="0 0 50 50">
    <path
        stroke="#5e5d5d" fill="#5e5d5d" d="M 15.4 1.1 C 7.5157 1.1 1.1 7.5157 1.1 15.4 L 1.1 35.2 C 1.1 43.0843 7.5157 49.5 15.4 49.5 L 35.2 49.5 C 43.0843 49.5 49.5 43.0843 49.5 35.2 L 49.5 15.4 C 49.5 7.5157 43.0843 1.1 35.2 1.1 L 15.4 1.1 z M 15.4 3.3 L 35.2 3.3 C 41.8951 3.3 47.3 8.7049 47.3 15.4 L 47.3 35.2 C 47.3 41.8951 41.8951 47.3 35.2 47.3 L 15.4 47.3 C 8.7049 47.3 3.3 41.8951 3.3 35.2 L 3.3 15.4 C 3.3 8.7049 8.7049 3.3 15.4 3.3 z M 38.5 9.9 A 2.2 2.2 90 0 0 36.3 12.1 A 2.2 2.2 90 0 0 38.5 14.3 A 2.2 2.2 90 0 0 40.7 12.1 A 2.2 2.2 90 0 0 38.5 9.9 z M 25.3 13.2 C 18.6304 13.2 13.2 18.6304 13.2 25.3 C 13.2 31.9696 18.6304 37.4 25.3 37.4 C 31.9696 37.4 37.4 31.9696 37.4 25.3 C 37.4 18.6304 31.9696 13.2 25.3 13.2 z M 25.3 15.4 C 30.7806 15.4 35.2 19.8194 35.2 25.3 C 35.2 30.7806 30.7806 35.2 25.3 35.2 C 19.8194 35.2 15.4 30.7806 15.4 25.3 C 15.4 19.8194 19.8194 15.4 25.3 15.4 z">
    </path>
</svg>