<svg xmlns:dc="http://purl.org/dc/elements/1.1/" xmlns:cc="http://creativecommons.org/ns#"
    xmlns:rdf="http://www.w3.org/1999/02/22-rdf-syntax-ns#" xmlns:svg="http://www.w3.org/2000/svg"
    xmlns="http://www.w3.org/2000/svg" xmlns:sodipodi="http://sodipodi.sourceforge.net/DTD/sodipodi-0.dtd"
    xmlns:inkscape="http://www.inkscape.org/namespaces/inkscape" version="1.1" x="0px" y="0px" viewBox="0 0 100 125">
    <g transform="translate(0,-952.36218)">
        <path
            style="text-indent:0;text-transform:none;direction:ltr;block-progression:tb;baseline-shift:baseline;color:#000000;enable-background:accumulate;"
            d="m 15.999998,972.36217 c -4.39741,0 -8,3.60258 -8,8 l 0,44.00003 c 0,4.3974 3.60259,8 8,8 l 68,0 c 4.397414,0 8.000004,-3.6026 8.000004,-8 l 0,-44.00003 c 0,-4.39742 -3.60259,-8 -8.000004,-8 l -68,0 z m 0,4 68,0 c 0.37627,0 0.72008,0.0643 1.0625,0.15625 l -32.3125,32.59378 c -1.57324,1.5898 -3.99218,1.5897 -5.5625,0 l -32.21875,-32.62503 c 0.33104,-0.0854 0.66904,-0.125 1.03125,-0.125 z m -3.84375,3 23.8125,24.09373 -23.78125,22.0625 c -0.10837,-0.3688 -0.1875,-0.7466 -0.1875,-1.1562 l 0,-44.00003 c 0,-0.35244 0.0752,-0.67693 0.15625,-1 z m 75.687504,0 c 0.081,0.32307 0.15625,0.64756 0.15625,1 l 0,44.00003 c 0,0.4096 -0.0791,0.7874 -0.1875,1.1562 l -23.781254,-22.0937 23.812504,-24.06253 z m -26.656254,26.90623 23.6875,21.9688 c -0.2844,0.062 -0.56892,0.125 -0.875,0.125 l -68,0 c -0.30608,0 -0.5906,-0.063 -0.875,-0.125 l 23.65625,-21.9375 5.5625,5.625 c 3.08788,3.126 8.16082,3.1217 11.25,0 l 5.59375,-5.6563 z"
            fill="#000000" fill-opacity="1" stroke="none" marker="none" visibility="visible" display="inline"
            overflow="visible" />
    </g>
    
</svg>