<svg xmlns="http://www.w3.org/2000/svg" version="1.1" viewBox="-5.0 -10.0 110.0 135.0">
 <path fill="#000" stroke="#000" d="m44.18 56.227c4.5078 4.1836 9.6562 7.6914 15.273 10.367 0.375 0.17969 0.76953 0.22266 1.1328 0.14453 0.36328-0.078125 0.71094-0.27734 0.97656-0.59375l6.2148-7.2695c0.53516-0.625 1.418-0.89844 2.25-0.62109l18.41 6.1484c1.3164 0.4375 2.6172 0.96875 3.6797 1.793 1.2969 1.0078 2.1758 2.3477 2.2539 4.2578l0.62109 15.078c0.074218 1.7656-0.58203 3.3984-1.6953 4.6094-1.0703 1.1602-2.5664 1.9336-4.2539 2.0586-0.097657 0.011719-0.19141 0.019531-0.29297 0.019531v-0.003906c-22.195 0.89453-42.66-7.2812-57.812-21.23-15.125-13.93-24.949-33.613-25.914-55.77-0.011719-0.089844-0.015626-0.17578-0.015626-0.26953h0.003907c-0.050781-1.7344 0.60156-3.3359 1.6953-4.5273 1.0703-1.1602 2.5664-1.9336 4.2539-2.0586 0.097656-0.011719 0.19141-0.019531 0.29297-0.019531v0.003906s14.996-0.61719 14.996-0.61719c1.9023-0.078124 3.3086 0.68359 4.4141 1.8906 0.91406 0.99609 1.5508 2.2539 2.0977 3.5312l7.6094 17.758c0.38672 0.8125 0.21875 1.8125-0.48047 2.4453l-6.8359 6.2227c-0.31641 0.28906-0.51172 0.65234-0.57031 1.0312-0.058594 0.38281 0.011719 0.78906 0.22266 1.1602 3.0742 5.3945 6.957 10.266 11.473 14.457zm13.473 14.148c-5.9883-2.8516-11.488-6.6016-16.32-11.086-4.8164-4.4727-8.9648-9.6797-12.258-15.457-0.69531-1.2148-0.92188-2.5781-0.71484-3.8789s0.84375-2.5273 1.8789-3.4727l5.7383-5.2227-7.0625-16.477c-0.39062-0.91016-0.81641-1.7812-1.3281-2.3359-0.31641-0.34766-0.69531-0.56641-1.1758-0.54687l-15.078 0.62109c-0.027343 0-0.054687 0.003907-0.082031 0.003907v0.003906h-0.03125c-0.5625 0.050781-1.0664 0.32031-1.4336 0.71875-0.39062 0.42578-0.62109 0.99609-0.59766 1.6133l0.003906 0.082031h0.003906v0.066406c0.90625 21.012 10.227 39.684 24.574 52.895 14.383 13.242 33.82 21 54.898 20.129 0.027343 0 0.054687-0.003906 0.082031-0.003906v-0.003906h0.03125c0.5625-0.050782 1.0664-0.32031 1.4336-0.71875 0.39062-0.42578 0.62109-0.99609 0.59766-1.6133l-0.62109-15.078c-0.019531-0.47266-0.26562-0.82812-0.63281-1.1133-0.60156-0.46875-1.5078-0.82422-2.4531-1.1406l-17.07-5.7031-5.3008 6.1992c-0.88281 1.0312-2.0391 1.7031-3.2852 1.9688-1.2461 0.26562-2.5742 0.125-3.8008-0.45703z" fill-rule="evenodd"/>
</svg>